<?xml version="1.0" encoding="utf-8"?>
<svg width="800px" height="800px" viewBox="0 0 1920 1920" xmlns="http://www.w3.org/2000/svg">
  <path fill="#d8b74f" fill-rule="nonzero" d="M960.017 43c35.35 0 66.409 22.589 77.365 56.244l189.064 582.1h612.141c35.351 0 66.409 22.588 77.365 56.244 10.956 33.657-0.903 70.137-29.59 90.918l-495.247 359.717 189.289 582.1c10.843 33.769-1.016 70.249-29.59 91.03-28.687 20.781-67.2 20.781-95.775-.113l-495.02-359.718-495.248 359.718c-14.23 10.504-31.058 15.699-47.887 15.699-16.602 0-33.431-5.196-47.661-15.586-28.687-20.781-40.546-57.261-29.704-90.918l189.29-582.211-495.247-359.718c-28.574-20.781-40.433-57.261-29.591-90.918 10.956-33.656 42.015-56.244 77.366-56.244h612.14l189.064-582.1C893.494 65.589 924.666 43 960.017 43Zm346.164 1067.407c-28.461 20.781-40.32 57.261-29.477 91.03l166.136 511.398-435.05-316.122c-28.686-20.781-67.086-20.781-95.66 0l-435.05 316.122 166.25-511.623c10.842-33.544-1.017-70.024-29.591-90.805L178.577 794.285h537.825c35.351 0 66.523-22.701 77.365-56.245l166.25-511.51 166.136 511.397a81.155 81.155 0 0 0 77.365 56.358h537.939l-435.276 316.122Z"/>
</svg>
